# xmcd
#
# Track frame offsets:
#	187
#	9690
#	20430
#	35672
#	47072
#	58700
#	67840
#	79125
#	102442
#	113525
#	123917
#	136962
#
# Disc length: 1975 seconds
#
# Revision: 0
# Processed by: cddbd v1.4PL0 Copyright (c) Steve Scherf et al.
# Submitted via: EasyCDDAExtractor 5.0.4.1
#
DISCID=9907b50c
DTITLE=Merle Haggard - Best of the early years 
DYEAR=1900
DGENRE=Country
TTITLE0=The Legend Of Bonnie and Clyde
TTITLE1=Today I Started Loving You Again
TTITLE2=I Threw Away The Rose
TTITLE3=(My Friends Are Gonna Be) Strangers
TTITLE4=Someone Told My Story
TTITLE5=I'm Gonna Break Every Heart I Can
TTITLE6=Sam Hill
TTITLE7=Killers Three Theme
TTITLE8=Street Singer
TTITLE9=Jesus,Take A Hold
TTITLE10=I Can't Be Myself
TTITLE11=Sidewalks Of Chicago
EXTD=Merle Haggard \nBest of the Early Years\n
EXTT0=
EXTT1=
EXTT2=
EXTT3=(my friends are gonna be) Strangers\n
EXTT4=Someone told my story\n
EXTT5=I'm gonna break every heart I can\n
EXTT6=Sam Hill\n
EXTT7=Killers three theme\n
EXTT8=Street singer\n
EXTT9=Jesus, Take a hold\n
EXTT10=I can't be myself\n
EXTT11=Sidewalks of Chicago\n
PLAYORDER=
